<?xml version="1.0" encoding="UTF-8" standalone="no"?>
<!-- Created with Inkscape (http://www.inkscape.org/) -->

<svg
   xmlns:dc="http://purl.org/dc/elements/1.1/"
   xmlns:cc="http://creativecommons.org/ns#"
   xmlns:rdf="http://www.w3.org/1999/02/22-rdf-syntax-ns#"
   xmlns:svg="http://www.w3.org/2000/svg"
   xmlns="http://www.w3.org/2000/svg"
   xmlns:sodipodi="http://sodipodi.sourceforge.net/DTD/sodipodi-0.dtd"
   xmlns:inkscape="http://www.inkscape.org/namespaces/inkscape"
   width="36mm"
   height="36mm"
   viewBox="0 0 36 36"
   version="1.1"
   id="svg8"
   inkscape:version="0.92.2 (5c3e80d, 2017-08-06)"
   sodipodi:docname="bird.svg"
   inkscape:export-filename="C:\Users\Flo\Documents\Projects\birdspace\img\bird.png"
   inkscape:export-xdpi="141.11111"
   inkscape:export-ydpi="141.11111">
  <defs
     id="defs2" />
  <sodipodi:namedview
     id="base"
     pagecolor="#ffffff"
     bordercolor="#666666"
     borderopacity="1.0"
     inkscape:pageopacity="0.0"
     inkscape:pageshadow="2"
     inkscape:zoom="1.979899"
     inkscape:cx="-61.350762"
     inkscape:cy="55.939002"
     inkscape:document-units="mm"
     inkscape:current-layer="layer1"
     showgrid="false"
     fit-margin-top="1"
     fit-margin-right="1"
     fit-margin-bottom="1"
     fit-margin-left="1"
     inkscape:window-width="1920"
     inkscape:window-height="1137"
     inkscape:window-x="-8"
     inkscape:window-y="-8"
     inkscape:window-maximized="1" />
  <metadata
     id="metadata5">
    <rdf:RDF>
      <cc:Work
         rdf:about="">
        <dc:format>image/svg+xml</dc:format>
        <dc:type
           rdf:resource="http://purl.org/dc/dcmitype/StillImage" />
        <dc:title></dc:title>
      </cc:Work>
    </rdf:RDF>
  </metadata>
  <g
     inkscape:label="Ebene 1"
     inkscape:groupmode="layer"
     id="layer1"
     transform="translate(-85.375767,-64.424049)">
    <path
       style="fill:#000000;stroke-width:0.27751064"
       d="m 99.128095,99.027829 c -0.514488,-0.311048 -0.997531,-0.801039 -1.073427,-1.088848 -0.0759,-0.287819 -0.407366,-0.561381 -0.736599,-0.607923 -0.842504,-0.119093 -0.757203,-1.663578 0.196724,-3.561936 0.405552,-0.807076 0.737367,-1.831374 0.737367,-2.276232 0,-0.444859 0.402299,-1.534521 0.893998,-2.42148 0.4917,-0.886969 0.82426,-1.681825 0.73902,-1.766345 -0.0852,-0.0845 -1.584803,-0.228952 -3.332375,-0.32095 -3.149881,-0.165813 -3.762574,-0.330539 -6.242794,-1.678399 -0.459808,-0.249883 -1.212222,-0.533869 -1.672032,-0.63108 -0.770416,-0.162888 -0.830729,-0.260694 -0.768655,-1.246524 0.07299,-1.159267 1.204315,-2.624747 2.02624,-2.624747 0.251147,0 0.751154,-0.310902 1.111128,-0.690887 0.359973,-0.379985 0.87382,-0.690888 1.141882,-0.690888 0.268063,0 0.841865,-0.294107 1.275116,-0.653567 0.433251,-0.359461 1.477442,-0.844584 2.320424,-1.078048 1.546334,-0.428261 7.127418,-1.007159 10.728868,-1.11285 l 1.9507,-0.05724 0.0826,-1.55587 c 0.0778,-1.466911 0.0419,-1.565981 -0.62847,-1.732838 -0.39107,-0.09735 -1.1459,-0.640794 -1.6774,-1.207679 -0.9238,-0.985319 -0.96669,-1.122721 -0.9739,-3.120472 -0.007,-1.998942 0.0283,-2.116061 0.81719,-2.694457 0.4536,-0.332575 1.07322,-0.604675 1.37692,-0.604675 0.30369,0 0.62968,-0.124367 0.7244,-0.276361 0.0947,-0.151994 1.24772,-0.276351 2.56221,-0.276351 2.17569,0 2.44648,0.06048 3.02016,0.674311 0.34659,0.370877 0.67887,0.819193 0.73839,0.996265 0.10353,0.307936 0.57627,0.518776 3.71144,1.65518 1.22209,0.442967 1.39337,0.60081 1.39337,1.284104 v 0.779042 l -2.69853,0.07886 c -2.22332,0.06497 -2.71405,0.157614 -2.78673,0.526015 -0.0484,0.245925 -0.71521,0.781674 -1.48156,1.190571 l -1.39335,0.743435 -0.0824,1.839532 -0.0824,1.839543 h 1.22412 c 0.76045,0 1.44244,0.183182 1.80054,0.483619 0.31702,0.265989 0.79218,0.612593 1.05589,0.770227 0.42138,0.251878 0.45486,0.579565 0.27636,2.704692 -0.15293,2.539556 -1.29818,3.900678 -3.71017,4.726498 -0.34336,0.108074 -0.96846,0.480852 -1.38912,0.828395 -0.42067,0.347543 -1.23511,0.717668 -1.80987,0.822492 -1.46819,0.267755 -1.3347,1.26004 0.40109,2.981388 0.3153,0.312678 0.5046,0.906606 0.5046,1.583215 0,0.595546 0.0762,1.27953 0.16915,1.51995 0.18775,0.485196 1.0947,0.592141 1.36354,0.160778 0.0947,-0.151994 0.47834,-0.276351 0.85246,-0.276351 0.91815,0 0.87819,0.70855 -0.0677,1.200013 -0.74456,0.386868 -0.74511,0.3895 -0.124,0.584987 0.96657,0.304228 0.5384,0.831016 -0.75212,0.925343 -1.2347,0.09024 -1.52989,0.453079 -0.60535,0.744084 0.59787,0.188175 0.74592,0.819035 0.26186,1.115722 -0.43972,0.269499 -1.89205,-0.411445 -2.07116,-0.971103 -0.0857,-0.267754 -0.14131,-0.845085 -0.12357,-1.282966 0.0682,-1.682033 -0.38932,-4.57958 -0.74431,-4.714674 -0.539,-0.205106 -1.5029,-1.955878 -1.5029,-2.72976 0,-0.662143 -0.0448,-0.675085 -2.33387,-0.675085 h -2.33389 l -0.16772,0.831591 c -0.0923,0.457371 -0.42319,1.174276 -0.73545,1.593116 -0.31225,0.41884 -0.686092,1.482714 -0.830752,2.364169 -0.144663,0.881443 -0.538317,2.044366 -0.874788,2.584262 l -0.611764,0.981621 0.669725,-0.179923 c 0.368349,-0.09891 1.143747,-0.321055 1.723099,-0.493563 0.81,-0.241183 1.13195,-0.235501 1.39337,0.02454 0.26768,0.266335 0.19942,0.443574 -0.32101,0.833544 -0.59033,0.442362 -0.60932,0.514954 -0.17763,0.679241 0.79612,0.302954 -0.0436,1.004871 -1.21588,1.016392 l -1.010896,0.01045 0.806576,0.654048 c 0.52252,0.423718 0.7464,0.8095 0.63575,1.09548 -0.22122,0.571671 -0.41351,0.555931 -1.541743,-0.126195 z"
       id="path4515"
       inkscape:connector-curvature="0"
       sodipodi:nodetypes="ccccsccccccscscccccccccscsccsscccccccsccccccssccsccccccccssccscccccccccccccc" />
  </g>
</svg>
